<svg width="36" height="37" viewBox="0 0 36 37" fill="none" xmlns="http://www.w3.org/2000/svg">
<rect y="0.13623" width="36" height="36" rx="6" fill="#E0FAED"/>
<path d="M15.3318 12.1326V24.1398" stroke="#071336" stroke-width="1.33414" stroke-linecap="round" stroke-linejoin="round"/>
<path d="M9.32812 20.8045C10.0358 20.8045 10.7145 20.5234 11.2149 20.023C11.7153 19.5226 11.9964 18.8439 11.9964 18.1362C11.9964 17.4286 11.7153 16.7499 11.2149 16.2495C10.7145 15.7491 10.0358 15.468 9.32812 15.468V12.7997C9.32812 12.6228 9.39841 12.4531 9.5235 12.328C9.6486 12.2029 9.81828 12.1326 9.99519 12.1326H26.0048C26.1817 12.1326 26.3514 12.2029 26.4765 12.328C26.6016 12.4531 26.6719 12.6228 26.6719 12.7997V15.468C25.9642 15.468 25.2855 15.7491 24.7851 16.2495C24.2847 16.7499 24.0036 17.4286 24.0036 18.1362C24.0036 18.8439 24.2847 19.5226 24.7851 20.023C25.2855 20.5234 25.9642 20.8045 26.6719 20.8045V23.4728C26.6719 23.6497 26.6016 23.8194 26.4765 23.9445C26.3514 24.0696 26.1817 24.1398 26.0048 24.1398H9.99519C9.81828 24.1398 9.6486 24.0696 9.5235 23.9445C9.39841 23.8194 9.32812 23.6497 9.32812 23.4728V20.8045Z" stroke="#071336" stroke-width="1.33414" stroke-linecap="round" stroke-linejoin="round"/>
</svg>
