<svg width="36" height="37" viewBox="0 0 36 37" fill="none" xmlns="http://www.w3.org/2000/svg">
<rect y="0.13623" width="36" height="36" rx="6" fill="#E0FAED"/>
<path d="M25.2188 14.1987H10.7813C10.4188 14.1987 10.125 14.4926 10.125 14.855V17.48C10.125 17.8424 10.4188 18.1362 10.7813 18.1362H25.2188C25.5812 18.1362 25.875 17.8424 25.875 17.48V14.855C25.875 14.4926 25.5812 14.1987 25.2188 14.1987Z" stroke="#071336" stroke-width="1.09375" stroke-linecap="round" stroke-linejoin="round"/>
<path d="M24.5625 18.1363V24.0425C24.5625 24.2166 24.4934 24.3835 24.3703 24.5066C24.2472 24.6296 24.0803 24.6988 23.9063 24.6988H12.0938C11.9197 24.6988 11.7528 24.6296 11.6297 24.5066C11.5066 24.3835 11.4375 24.2166 11.4375 24.0425V18.1363" stroke="#071336" stroke-width="1.09375" stroke-linecap="round" stroke-linejoin="round"/>
<path d="M18 14.1987V24.6987" stroke="#071336" stroke-width="1.09375" stroke-linecap="round" stroke-linejoin="round"/>
<path d="M22.0023 10.1965C22.7685 10.9626 22.8136 12.2522 22.0023 12.9707C20.6152 14.1988 18 14.1988 18 14.1988C18 14.1988 18 11.5836 19.2305 10.1965C19.9466 9.38516 21.2361 9.43028 22.0023 10.1965Z" stroke="#071336" stroke-width="1.09375" stroke-linecap="round" stroke-linejoin="round"/>
<path d="M13.9979 10.1965C13.2317 10.9626 13.1866 12.2522 13.9979 12.9707C15.3851 14.1988 18.0002 14.1988 18.0002 14.1988C18.0002 14.1988 18.0002 11.5836 16.7698 10.1965C16.0536 9.38516 14.7641 9.43028 13.9979 10.1965Z" stroke="#071336" stroke-width="1.09375" stroke-linecap="round" stroke-linejoin="round"/>
</svg>
