<svg width="48" height="49" viewBox="0 0 48 49" fill="none" xmlns="http://www.w3.org/2000/svg">
<rect x="48" y="0.13623" width="48" height="48" rx="4" transform="rotate(90 48 0.13623)" fill="#75FA9E"/>
<path d="M34.3562 36.9C34.5019 37.0225 34.6795 37.1009 34.8682 37.126C35.0568 37.1511 35.2488 37.1218 35.4214 37.0416C35.594 36.9614 35.7401 36.8336 35.8426 36.6732C35.9451 36.5129 35.9997 36.3266 36 36.1362V16.1362C36 15.871 35.8946 15.6167 35.7071 15.4291C35.5196 15.2416 35.2652 15.1362 35 15.1362H13C12.7348 15.1362 12.4804 15.2416 12.2929 15.4291C12.1054 15.6167 12 15.871 12 16.1362V32.1362C12 32.4014 12.1054 32.6558 12.2929 32.8433C12.4804 33.0309 12.7348 33.1362 13 33.1362H30L34.3562 36.9Z" stroke="#071336" stroke-width="2" stroke-linecap="round" stroke-linejoin="round"/>
<path d="M28 22.1362H20" stroke="#071336" stroke-width="2" stroke-linecap="round" stroke-linejoin="round"/>
<path d="M28 26.1362H20" stroke="#071336" stroke-width="2" stroke-linecap="round" stroke-linejoin="round"/>
</svg>
