<svg width="48" height="49" viewBox="0 0 48 49" fill="none" xmlns="http://www.w3.org/2000/svg">
<rect x="48" y="0.5" width="48" height="48" rx="4.0811" transform="rotate(90 48 0.5)" fill="#75FA9E"/>
<path d="M35.2229 14.2972H12.7769C12.2134 14.2972 11.7566 14.754 11.7566 15.3175V30.6217C11.7566 31.1851 12.2134 31.6419 12.7769 31.6419H35.2229C35.7864 31.6419 36.2432 31.1851 36.2432 30.6217V15.3175C36.2432 14.754 35.7864 14.2972 35.2229 14.2972Z" stroke="#071336" stroke-width="1.53041" stroke-linecap="round" stroke-linejoin="round"/>
<path d="M28.0811 31.6418L32.1622 36.7432" stroke="#071336" stroke-width="1.53041" stroke-linecap="round" stroke-linejoin="round"/>
<path d="M19.9188 31.6418L15.8376 36.7432" stroke="#071336" stroke-width="1.53041" stroke-linecap="round" stroke-linejoin="round"/>
<path d="M19.9189 23.4797V26.5406" stroke="#071336" stroke-width="1.53041" stroke-linecap="round" stroke-linejoin="round"/>
<path d="M24 21.4391V26.5405" stroke="#071336" stroke-width="1.53041" stroke-linecap="round" stroke-linejoin="round"/>
<path d="M28.0811 19.3986V26.5405" stroke="#071336" stroke-width="1.53041" stroke-linecap="round" stroke-linejoin="round"/>
<path d="M24 14.2972V11.2363" stroke="#071336" stroke-width="1.53041" stroke-linecap="round" stroke-linejoin="round"/>
</svg>
