<svg width="16" height="16" viewBox="0 0 16 16" fill="none" xmlns="http://www.w3.org/2000/svg">
<mask id="mask0_14307_158" style="mask-type:luminance" maskUnits="userSpaceOnUse" x="9" y="1" width="7" height="7">
<path fill-rule="evenodd" clip-rule="evenodd" d="M9.56934 1.3335H15.262V7.02204H9.56934V1.3335Z" fill="white"/>
</mask>
<g mask="url(#mask0_14307_158)">
<path fill-rule="evenodd" clip-rule="evenodd" d="M14.7618 7.02204C14.5105 7.02204 14.2945 6.83337 14.2658 6.57804C14.0131 4.32737 12.2651 2.58071 10.0138 2.33071C9.7398 2.30004 9.5418 2.05337 9.57247 1.77871C9.60247 1.50471 9.84713 1.30271 10.1245 1.33737C12.8431 1.63937 14.9545 3.74804 15.2591 6.46604C15.2898 6.7407 15.0925 6.98804 14.8185 7.0187C14.7998 7.02071 14.7805 7.02204 14.7618 7.02204Z" fill="#071336"/>
</g>
<path fill-rule="evenodd" clip-rule="evenodd" d="M12.4015 7.02927C12.1668 7.02927 11.9581 6.86394 11.9115 6.62527C11.7195 5.63861 10.9588 4.87794 9.97347 4.68661C9.70213 4.63394 9.52547 4.37194 9.57813 4.10061C9.6308 3.82927 9.89747 3.65194 10.1641 3.70527C11.5515 3.97461 12.6228 5.04527 12.8928 6.43327C12.9455 6.70527 12.7688 6.96727 12.4981 7.01994C12.4655 7.02594 12.4335 7.02927 12.4015 7.02927Z" fill="#071336"/>
<mask id="mask1_14307_158" style="mask-type:luminance" maskUnits="userSpaceOnUse" x="1" y="1" width="15" height="15">
<path fill-rule="evenodd" clip-rule="evenodd" d="M1.3335 1.33325H15.0003V15.0003H1.3335V1.33325Z" fill="white"/>
</mask>
<g mask="url(#mask1_14307_158)">
<path fill-rule="evenodd" clip-rule="evenodd" d="M2.90623 3.37428C2.90756 3.37428 2.87423 3.40895 2.83223 3.45028C2.6709 3.60695 2.3369 3.93295 2.33356 4.61495C2.32823 5.56895 2.95556 7.34028 5.97623 10.3603C8.98223 13.3656 10.7509 14.0003 11.7076 14.0003H11.7216C12.4036 13.9963 12.7289 13.6623 12.8856 13.5016C12.9329 13.4529 12.9716 13.4163 12.9989 13.3943C13.6636 12.7256 14.0036 12.2289 14.0002 11.9096C13.9962 11.5843 13.5916 11.2003 13.0322 10.6676C12.8542 10.499 12.6609 10.3143 12.4569 10.1103C11.9276 9.58295 11.6669 9.67295 11.0902 9.87562C10.2936 10.1549 9.20223 10.5376 7.50156 8.83562C5.80023 7.13495 6.18156 6.04362 6.45956 5.24628C6.6609 4.67028 6.7529 4.40828 6.22423 3.87895C6.01756 3.67228 5.83156 3.47628 5.66023 3.29628C5.1309 2.74028 4.7489 2.33828 4.42556 2.33362H4.42023C4.1009 2.33362 3.6049 2.67495 2.9029 3.37695C2.9049 3.37495 2.90556 3.37428 2.90623 3.37428ZM11.7076 15.0003C10.0462 15.0003 7.88022 13.6776 5.26955 11.0676C2.64822 8.44695 1.32355 6.27428 1.33355 4.60961C1.33955 3.50961 1.91622 2.94628 2.13289 2.73495C2.14422 2.72095 2.18289 2.68295 2.19622 2.66961C3.15289 1.71295 3.81022 1.31961 4.43822 1.33361C5.18289 1.34361 5.71355 1.90161 6.38489 2.60761C6.55089 2.78161 6.73022 2.97161 6.93088 3.17161C7.90355 4.14495 7.62689 4.93895 7.40355 5.57628C7.16089 6.27161 6.95089 6.87161 8.20822 8.12895C9.46555 9.38628 10.0649 9.17628 10.7596 8.93161C11.3976 8.70895 12.1896 8.43028 13.1642 9.40361C13.3622 9.60161 13.5489 9.77894 13.7222 9.94361C14.4309 10.6183 14.9909 11.1509 15.0002 11.8976C15.0076 12.5336 14.6209 13.1829 13.6662 14.1376L13.2436 13.8509L13.6016 14.1996C13.3902 14.4163 12.8282 14.9936 11.7276 15.0003H11.7076Z" fill="#071336"/>
</g>
</svg>
