<svg width="44" height="45" viewBox="0 0 44 45" fill="none" xmlns="http://www.w3.org/2000/svg">
<rect y="0.136292" width="44" height="44" rx="2.88076" fill="white"/>
<path d="M14.0779 26.4574L14.0779 17.095C14.0779 16.7129 14.2296 16.3466 14.4998 16.0764C14.7699 15.8063 15.1362 15.6546 15.5183 15.6546L28.4817 15.6546C28.8637 15.6546 29.2301 15.8063 29.5002 16.0764C29.7703 16.3466 29.9221 16.7129 29.9221 17.095V26.4574" stroke="#071336" stroke-width="1.44038" stroke-linecap="round" stroke-linejoin="round"/>
<path d="M12.6377 26.4574L31.3626 26.4574V27.8978C31.3626 28.2798 31.2109 28.6462 30.9407 28.9163C30.6706 29.1864 30.3043 29.3382 29.9222 29.3382L14.0781 29.3382C13.6961 29.3382 13.3297 29.1864 13.0596 28.9163C12.7894 28.6462 12.6377 28.2798 12.6377 27.8978V26.4574Z" stroke="#343330" stroke-width="1.44038" stroke-linecap="round" stroke-linejoin="round"/>
<path d="M23.4406 18.5353H20.5598" stroke="#343330" stroke-width="1.44038" stroke-linecap="round" stroke-linejoin="round"/>
</svg>
