<svg width="44" height="45" viewBox="0 0 44 45" fill="none" xmlns="http://www.w3.org/2000/svg">
<rect y="0.136292" width="44" height="44" rx="2.88076" fill="white"/>
<path d="M18.759 22.1812C19.3307 22.1812 19.7941 22.6447 19.7942 23.2164C19.7942 23.7881 19.3308 24.2515 18.759 24.2515C18.1874 24.2514 17.7239 23.7881 17.7239 23.2164C17.724 22.6448 18.1874 22.1813 18.759 22.1812Z" fill="#343330" stroke="#071336" stroke-width="0.0900237"/>
<path d="M25.2409 24.2969C25.8376 24.2969 26.3212 23.8132 26.3212 23.2166C26.3212 22.62 25.8376 22.1363 25.2409 22.1363C24.6443 22.1363 24.1606 22.62 24.1606 23.2166C24.1606 23.8132 24.6443 24.2969 25.2409 24.2969Z" fill="#343330"/>
<path d="M24.2902 17.2471L24.7403 15.4799C24.7853 15.3021 24.8956 15.1478 25.0492 15.0477C25.2029 14.9476 25.3886 14.9091 25.5694 14.9398L28.8139 15.4745C28.954 15.4973 29.0845 15.5606 29.1891 15.6565C29.2937 15.7525 29.3679 15.877 29.4026 16.0147L32.061 26.4907C32.1017 26.6554 32.0828 26.8292 32.0079 26.9813C31.933 27.1335 31.8067 27.2543 31.6514 27.3226L25.6199 29.9963C25.5283 30.0378 25.4292 30.0601 25.3287 30.0618C25.2282 30.0634 25.1285 30.0444 25.0356 30.0059C24.9428 29.9674 24.8588 29.9103 24.789 29.838C24.7191 29.7657 24.6649 29.6799 24.6296 29.5857L23.7104 27.093" stroke="#343330" stroke-width="1.44038" stroke-linecap="round" stroke-linejoin="round"/>
<path d="M19.7098 17.2471L19.2596 15.4799C19.2147 15.3021 19.1044 15.1478 18.9507 15.0477C18.7971 14.9476 18.6113 14.9091 18.4305 14.9398L15.1861 15.4745C15.0459 15.4973 14.9155 15.5606 14.8109 15.6565C14.7063 15.7525 14.632 15.877 14.5973 16.0147L11.9389 26.4889C11.8983 26.6536 11.9171 26.8274 11.9921 26.9795C12.067 27.1317 12.1932 27.2525 12.3485 27.3208L18.3801 29.9945C18.4716 30.036 18.5707 30.0583 18.6712 30.06C18.7717 30.0616 18.8715 30.0426 18.9643 30.0041C19.0572 29.9656 19.1411 29.9085 19.211 29.8362C19.2808 29.7639 19.3351 29.6781 19.3704 29.5839L20.2895 27.093" stroke="#343330" stroke-width="1.44038" stroke-linecap="round" stroke-linejoin="round"/>
<path d="M17.679 17.6632C19.087 17.279 20.5406 17.0879 22.0001 17.0952C23.4596 17.0879 24.9132 17.279 26.3212 17.6632" stroke="#343330" stroke-width="1.44038" stroke-linecap="round" stroke-linejoin="round"/>
<path d="M26.3212 26.6093C24.9132 26.9936 23.4596 27.1847 22.0001 27.1774C20.5406 27.1847 19.087 26.9936 17.679 26.6093" stroke="#343330" stroke-width="1.44038" stroke-linecap="round" stroke-linejoin="round"/>
</svg>
