<svg width="36" height="37" viewBox="0 0 36 37" fill="none" xmlns="http://www.w3.org/2000/svg">
<rect y="0.136292" width="36" height="36" rx="2.35698" fill="#E0FAED"/>
<path d="M16.9688 11.852C17.3069 11.6597 17.7074 11.609 18.0828 11.711C18.4583 11.8129 18.7781 12.0591 18.9726 12.396C19.1671 12.7329 19.2205 13.1331 19.1211 13.5091C19.0216 13.8852 18.7775 14.2067 18.4419 14.4034L16.2322 15.7793L24.187 15.7793C24.5777 15.7793 24.9524 15.9345 25.2287 16.2108C25.505 16.4871 25.6602 16.8617 25.6602 17.2524C25.6602 17.6431 25.505 18.0178 25.2287 18.2941C24.9524 18.5704 24.5777 18.7256 24.187 18.7256L20.0623 18.7256C20.453 18.7256 20.8277 18.8808 21.104 19.157C21.3802 19.4333 21.5354 19.808 21.5354 20.1987C21.5354 20.5894 21.3802 20.9641 21.104 21.2403C20.8277 21.5166 20.453 21.6718 20.0623 21.6718L18.8838 21.6718C19.2745 21.6718 19.6492 21.827 19.9255 22.1033C20.2017 22.3795 20.3569 22.7542 20.3569 23.1449C20.3569 23.5356 20.2017 23.9103 19.9255 24.1865C19.6492 24.4628 19.2745 24.618 18.8838 24.618L16.2322 24.618C15.4584 24.618 14.6922 24.4656 13.9773 24.1695C13.2624 23.8734 12.6128 23.4393 12.0656 22.8922C11.5185 22.345 11.0844 21.6954 10.7883 20.9805C10.4922 20.2656 10.3398 19.4994 10.3398 18.7256C10.3398 15.4714 12.1075 14.6148 16.9688 11.852Z" stroke="#071336" stroke-width="1.17849" stroke-linecap="round" stroke-linejoin="round"/>
</svg>
