<svg width="44" height="45" viewBox="0 0 44 45" fill="none" xmlns="http://www.w3.org/2000/svg">
<rect y="0.136292" width="44" height="44" rx="2.88076" fill="white"/>
<path d="M29.9223 17.8151L14.0781 17.8151C13.6803 17.8151 13.3579 18.1376 13.3579 18.5353V21.4161C13.3579 21.8138 13.6803 22.1363 14.0781 22.1363L29.9223 22.1363C30.32 22.1363 30.6425 21.8138 30.6425 21.4161V18.5353C30.6425 18.1376 30.32 17.8151 29.9223 17.8151Z" stroke="#071336" stroke-width="1.44038" stroke-linecap="round" stroke-linejoin="round"/>
<path d="M29.2019 22.1363V28.618C29.2019 28.809 29.126 28.9922 28.9909 29.1272C28.8559 29.2623 28.6727 29.3382 28.4817 29.3382H15.5183C15.3273 29.3382 15.1441 29.2623 15.009 29.1272C14.874 28.9922 14.7981 28.809 14.7981 28.618L14.7981 22.1363" stroke="#343330" stroke-width="1.44038" stroke-linecap="round" stroke-linejoin="round"/>
<path d="M22 17.8151L22 29.3382" stroke="#343330" stroke-width="1.44038" stroke-linecap="round" stroke-linejoin="round"/>
<path d="M26.3923 13.4229C27.2331 14.2637 27.2826 15.6789 26.3923 16.4675C24.87 17.8151 22 17.8151 22 17.8151C22 17.8151 22 14.9452 23.3504 13.4229C24.1363 12.5326 25.5514 12.5821 26.3923 13.4229Z" stroke="#343330" stroke-width="1.44038" stroke-linecap="round" stroke-linejoin="round"/>
<path d="M17.6078 13.4229C16.767 14.2637 16.7175 15.6789 17.6078 16.4675C19.1301 17.8151 22.0001 17.8151 22.0001 17.8151C22.0001 17.8151 22.0001 14.9452 20.6497 13.4229C19.8638 12.5326 18.4486 12.5821 17.6078 13.4229Z" stroke="#343330" stroke-width="1.44038" stroke-linecap="round" stroke-linejoin="round"/>
</svg>
