<svg width="48" height="48" viewBox="0 0 48 48" fill="none" xmlns="http://www.w3.org/2000/svg">
<rect x="48" width="48" height="48" rx="4.95948" transform="rotate(90 48 0)" fill="#75FA9E"/>
<path d="M28.9595 38.8784H19.0405" stroke="#071336" stroke-width="2.47974" stroke-linecap="round" stroke-linejoin="round"/>
<path d="M35.1586 20.2804C35.1586 17.3209 33.9829 14.4826 31.8902 12.3899C29.7975 10.2972 26.9592 9.12158 23.9997 9.12158C21.0402 9.12158 18.2019 10.2972 16.1092 12.3899C14.0166 14.4826 12.8409 17.3209 12.8409 20.2804C12.8409 25.8319 11.5545 30.2924 10.5316 32.0592C10.423 32.2474 10.3657 32.4608 10.3655 32.678C10.3653 32.8953 10.4222 33.1088 10.5305 33.2972C10.6388 33.4855 10.7947 33.6421 10.9826 33.7513C11.1705 33.8604 11.3838 33.9182 11.601 33.919H36.3984C36.6155 33.9177 36.8283 33.8595 37.0158 33.7501C37.2032 33.6407 37.3587 33.4841 37.4666 33.2958C37.5746 33.1076 37.6312 32.8943 37.6309 32.6773C37.6305 32.4603 37.5732 32.2471 37.4647 32.0592C36.4434 30.2924 35.1586 25.8304 35.1586 20.2804Z" stroke="#071336" stroke-width="2.47974" stroke-linecap="round" stroke-linejoin="round"/>
</svg>
