<svg width="48" height="49" viewBox="0 0 48 49" fill="none" xmlns="http://www.w3.org/2000/svg">
<rect x="48" y="0.13623" width="48" height="48" rx="4" transform="rotate(90 48 0.13623)" fill="#75FA9E"/>
<path d="M29 37.1362H19" stroke="#071336" stroke-width="2" stroke-linecap="round" stroke-linejoin="round"/>
<path d="M30.1626 29.0112C31.3514 28.0826 32.3143 26.8966 32.9789 25.5424C33.6436 24.1882 33.9927 22.701 34.0001 21.1925C34.0301 15.7725 29.6601 11.2612 24.2413 11.1362C22.1413 11.0854 20.0786 11.6971 18.3459 12.8847C16.6132 14.0722 15.2984 15.7753 14.5881 17.7522C13.8779 19.7291 13.8082 21.8795 14.389 23.8982C14.9698 25.9169 16.1716 27.7015 17.8238 28.9987C18.1883 29.2813 18.4836 29.6431 18.6874 30.0568C18.8912 30.4705 18.9981 30.9251 19.0001 31.3862V32.1362C19.0001 32.4015 19.1054 32.6558 19.293 32.8433C19.4805 33.0309 19.7349 33.1362 20.0001 33.1362H28.0001C28.2653 33.1362 28.5197 33.0309 28.7072 32.8433C28.8947 32.6558 29.0001 32.4015 29.0001 32.1362V31.3862C29.0006 30.928 29.1055 30.476 29.307 30.0644C29.5084 29.6529 29.801 29.2927 30.1626 29.0112Z" stroke="#071336" stroke-width="2" stroke-linecap="round" stroke-linejoin="round"/>
<path d="M23 15.1362C20.5 15.5575 18.4238 17.6362 18 20.1362" stroke="#071336" stroke-width="2" stroke-linecap="round" stroke-linejoin="round"/>
</svg>
